<svg xmlns="http://www.w3.org/2000/svg" viewBox="0 0 920 560" font-family="Segoe UI, system-ui, sans-serif">
  <defs>
    <linearGradient id="acc3" x1="0" y1="0" x2="1" y2="1">
      <stop offset="0" stop-color="#4d8bff"/><stop offset="1" stop-color="#2bd4ee"/>
    </linearGradient>
  </defs>
  <rect width="920" height="560" rx="14" fill="#0a0d15"/>

  <text x="40" y="52" fill="#eef3fb" font-size="22" font-weight="700">🎨 Оформление</text>
  <rect x="754" y="30" width="126" height="34" rx="11" fill="url(#acc3)"/>
  <text x="817" y="52" fill="#06121f" font-size="13" font-weight="700" text-anchor="middle">Сохранить</text>

  <!-- Brand name -->
  <rect x="40" y="84" width="840" height="96" rx="16" fill="#111722" stroke="#1f2a3d"/>
  <text x="62" y="114" fill="#eef3fb" font-size="14" font-weight="600">Название сервиса</text>
  <text x="62" y="134" fill="#9aa7bd" font-size="11">Пусто — подхватится автоматически из имени бота</text>
  <rect x="62" y="146" width="796" height="20" rx="6" fill="#0e1622" stroke="#243149"/>
  <text x="74" y="160" fill="#eef3fb" font-size="12">Begemot VPN</text>

  <!-- Accent -->
  <rect x="40" y="196" width="840" height="104" rx="16" fill="#111722" stroke="#1f2a3d"/>
  <text x="62" y="226" fill="#eef3fb" font-size="14" font-weight="600">Акцентный цвет</text>
  <text x="62" y="246" fill="#9aa7bd" font-size="11">Кнопки, ссылки, выделения и свечения во всём кабинете</text>
  <rect x="62" y="260" width="30" height="30" rx="9" fill="#4d8bff" stroke="#eef3fb" stroke-width="2"/>
  <rect x="102" y="260" width="30" height="30" rx="9" fill="#7c5cff"/>
  <rect x="142" y="260" width="30" height="30" rx="9" fill="#ec4899"/>
  <rect x="182" y="260" width="30" height="30" rx="9" fill="#f43f5e"/>
  <rect x="222" y="260" width="30" height="30" rx="9" fill="#f59e0b"/>
  <rect x="262" y="260" width="30" height="30" rx="9" fill="#10b981"/>
  <rect x="302" y="260" width="30" height="30" rx="9" fill="#06b6d4"/>

  <!-- Background -->
  <rect x="40" y="316" width="840" height="104" rx="16" fill="#111722" stroke="#1f2a3d"/>
  <text x="62" y="346" fill="#eef3fb" font-size="14" font-weight="600">Цвет фона</text>
  <text x="62" y="366" fill="#9aa7bd" font-size="11">Базовый фон — оттенки поверхностей и текст подбираются автоматически</text>
  <rect x="62" y="380" width="30" height="30" rx="9" fill="#0a0d15" stroke="#243149"/>
  <rect x="102" y="380" width="30" height="30" rx="9" fill="#101522"/>
  <rect x="142" y="380" width="30" height="30" rx="9" fill="#13111c"/>
  <rect x="182" y="380" width="30" height="30" rx="9" fill="#0e1512"/>
  <rect x="222" y="380" width="30" height="30" rx="9" fill="#f6f4ee"/>
  <rect x="262" y="380" width="30" height="30" rx="9" fill="#ffffff" stroke="#243149"/>

  <!-- Preview -->
  <rect x="40" y="436" width="840" height="104" rx="16" fill="#111722" stroke="#1f2a3d"/>
  <text x="62" y="466" fill="#eef3fb" font-size="13" font-weight="600">Предпросмотр</text>
  <text x="62" y="500" fill="#eef3fb" font-size="18" font-weight="800">Begemot VPN</text>
  <rect x="62" y="510" width="84" height="22" rx="8" fill="url(#acc3)"/>
  <text x="104" y="525" fill="#06121f" font-size="11" font-weight="700" text-anchor="middle">Кнопка</text>
  <rect x="156" y="510" width="74" height="22" rx="11" fill="#13233f"/>
  <text x="193" y="525" fill="#4d8bff" font-size="11" font-weight="600" text-anchor="middle">★ Бейдж</text>
  <text x="246" y="525" fill="#4d8bff" font-size="12" font-weight="600">Ссылка</text>
</svg>
