<svg xmlns="http://www.w3.org/2000/svg" viewBox="0 0 920 560" font-family="Segoe UI, system-ui, sans-serif">
  <defs>
    <linearGradient id="acc" x1="0" y1="0" x2="1" y2="1">
      <stop offset="0" stop-color="#4d8bff"/><stop offset="1" stop-color="#2bd4ee"/>
    </linearGradient>
  </defs>
  <rect width="920" height="560" rx="14" fill="#0a0d15"/>

  <!-- Sidebar -->
  <rect x="0" y="0" width="200" height="560" rx="14" fill="#0c1019"/>
  <rect x="200" y="0" width="1" height="560" fill="#1b2230"/>
  <rect x="22" y="26" width="30" height="30" rx="9" fill="url(#acc)"/>
  <text x="62" y="46" fill="#eef3fb" font-size="17" font-weight="700">RemnaShop</text>

  <rect x="14" y="80" width="172" height="34" rx="9" fill="#172033"/>
  <text x="46" y="102" fill="#eef3fb" font-size="13" font-weight="600">Главная</text>
  <text x="46" y="140" fill="#9aa7bd" font-size="13">Подписка</text>
  <text x="46" y="174" fill="#9aa7bd" font-size="13">Устройства</text>
  <text x="46" y="208" fill="#9aa7bd" font-size="13">Рефералка</text>
  <text x="46" y="242" fill="#9aa7bd" font-size="13">Поддержка</text>
  <text x="46" y="276" fill="#9aa7bd" font-size="13">Настройки</text>

  <!-- Header -->
  <text x="236" y="52" fill="#eef3fb" font-size="24" font-weight="700">Добро пожаловать!</text>
  <text x="236" y="76" fill="#9aa7bd" font-size="13">Ваша подписка</text>
  <rect x="338" y="63" width="86" height="20" rx="10" fill="#13233f"/>
  <text x="350" y="77" fill="#4d8bff" font-size="11" font-weight="600">★ Активная</text>

  <!-- Hero card -->
  <rect x="236" y="98" width="660" height="190" rx="18" fill="#141c2b" stroke="#1f2a3d"/>
  <text x="260" y="130" fill="#4d8bff" font-size="11" font-weight="700">● БЕЗЛИМИТ</text>
  <text x="260" y="156" fill="#eef3fb" font-size="18" font-weight="700">Расход трафика</text>
  <text x="770" y="130" fill="#65728a" font-size="11" text-anchor="end">182 ГБ израсходовано</text>
  <rect x="260" y="172" width="612" height="9" rx="5" fill="#222c3d"/>
  <rect x="260" y="172" width="250" height="9" rx="5" fill="url(#acc)"/>

  <rect x="260" y="198" width="298" height="66" rx="12" fill="#0f1622" stroke="#1f2a3d"/>
  <text x="278" y="222" fill="#65728a" font-size="11">ТАРИФ</text>
  <text x="278" y="246" fill="#eef3fb" font-size="14" font-weight="600">UNLIMITED · до 10 устройств</text>
  <rect x="574" y="198" width="298" height="66" rx="12" fill="#0f1622" stroke="#1f2a3d"/>
  <text x="592" y="222" fill="#65728a" font-size="11">ОСТАЛОСЬ</text>
  <text x="592" y="250" fill="#eef3fb" font-size="22" font-weight="700">47 <tspan fill="#65728a" font-size="13" font-weight="500">дн.</tspan></text>

  <!-- Two stat cards -->
  <rect x="236" y="304" width="322" height="120" rx="16" fill="#111722" stroke="#1f2a3d"/>
  <text x="258" y="334" fill="#9aa7bd" font-size="13">Любимый сервер</text>
  <rect x="258" y="350" width="26" height="18" rx="3" fill="#21468b"/>
  <rect x="258" y="356" width="26" height="6" fill="#ae1c28"/>
  <rect x="258" y="350" width="26" height="6" fill="#ffffff"/>
  <text x="296" y="366" fill="#eef3fb" font-size="18" font-weight="700">Netherlands</text>
  <text x="258" y="392" fill="#65728a" font-size="11">412 ГБ за 30 дней</text>

  <rect x="574" y="304" width="322" height="120" rx="16" fill="#111722" stroke="#1f2a3d"/>
  <text x="596" y="334" fill="#9aa7bd" font-size="13">Рефералы</text>
  <text x="596" y="372" fill="#eef3fb" font-size="22" font-weight="700">3</text>
  <text x="596" y="394" fill="#65728a" font-size="11">приглашено</text>

  <!-- Connect device row -->
  <rect x="236" y="440" width="660" height="56" rx="14" fill="#0f1622" stroke="#1f2a3d"/>
  <rect x="254" y="454" width="28" height="28" rx="8" fill="#13233f"/>
  <text x="296" y="466" fill="#eef3fb" font-size="13" font-weight="600">Подключить устройство</text>
  <text x="296" y="484" fill="#9aa7bd" font-size="11">2 из 10 подключено</text>
</svg>
